<svg width="100" height="100" viewBox="0 0 100 100" fill="none" xmlns="http://www.w3.org/2000/svg">
<rect x="37" y="40" width="25" height="5" fill="black"/>
<rect x="42" y="35" width="16" height="5" fill="black"/>
<rect x="42" y="60" width="16" height="5" fill="black"/>
<rect x="37" y="55" width="25" height="5" fill="black"/>
<rect x="33" y="45" width="32" height="5" fill="black"/>
<rect x="33" y="50" width="32" height="5" fill="black"/>
<rect x="42" y="45" width="15" height="5" fill="white"/>
<rect x="42" y="50" width="15" height="5" fill="white"/>
<rect x="33" y="10" width="35" height="5" fill="black"/>
<rect x="65" y="48" width="23" height="5" fill="black"/>
<rect x="12" y="48" width="21" height="5" fill="black"/>
<rect x="33" y="85" width="35" height="5" fill="black"/>
<rect x="68" y="15" width="10" height="5" fill="black"/>
<rect x="78" y="20" width="5" height="5" fill="black"/>
<rect x="83" y="25" width="5" height="15" fill="black"/>
<rect width="10" height="5" transform="matrix(1 0 0 -1 68 85)" fill="black"/>
<rect width="5" height="10" transform="matrix(1 0 0 -1 78 80)" fill="black"/>
<rect width="5" height="10" transform="matrix(1 0 0 -1 83 70)" fill="black"/>
<rect x="88" y="40" width="5" height="20" fill="black"/>
<rect width="10" height="5" transform="matrix(-1 0 0 1 33 15)" fill="black"/>
<rect width="5" height="5" transform="matrix(-1 0 0 1 23 20)" fill="black"/>
<rect width="5" height="15" transform="matrix(-1 0 0 1 18 25)" fill="black"/>
<rect x="33" y="85" width="10" height="5" transform="rotate(180 33 85)" fill="black"/>
<rect x="23" y="80" width="5" height="5" transform="rotate(180 23 80)" fill="black"/>
<rect x="18" y="75" width="5" height="15" transform="rotate(180 18 75)" fill="black"/>
<rect width="5" height="20" transform="matrix(-1 0 0 1 13 40)" fill="black"/>
<rect x="65" y="45" width="23" height="3" fill="#B02B2B"/>
<rect x="62" y="40" width="26" height="5" fill="#B02B2B"/>
<rect x="58" y="25" width="25" height="15" fill="#B02B2B"/>
<rect x="23" y="20" width="55" height="5" fill="#B02B2B"/>
<rect x="33" y="15" width="35" height="5" fill="#B02B2B"/>
<rect x="18" y="25" width="40" height="10" fill="#B02B2B"/>
<rect x="18" y="35" width="24" height="5" fill="#B02B2B"/>
<rect x="13" y="40" width="24" height="5" fill="#B02B2B"/>
<rect x="13" y="45" width="20" height="3" fill="#B02B2B"/>
<rect width="23" height="2.90909" transform="matrix(1 0 0 -1 65 55.9092)" fill="#D9D9D9"/>
<rect width="26" height="5" transform="matrix(1 0 0 -1 62 60)" fill="#D9D9D9"/>
<rect width="25" height="15" transform="matrix(1 0 0 -1 58 75)" fill="#D9D9D9"/>
<rect width="55" height="5" transform="matrix(1 0 0 -1 23 80)" fill="#D9D9D9"/>
<rect width="35" height="5" transform="matrix(1 0 0 -1 33 85)" fill="#D9D9D9"/>
<rect width="40" height="10" transform="matrix(1 0 0 -1 18 75)" fill="#D9D9D9"/>
<rect width="24" height="5" transform="matrix(1 0 0 -1 18 65)" fill="#D9D9D9"/>
<rect width="24" height="5" transform="matrix(1 0 0 -1 13 60)" fill="#D9D9D9"/>
<rect width="20" height="2" transform="matrix(1 0 0 -1 13 55)" fill="#D9D9D9"/>
</svg>
